<svg width="72" height="43" viewBox="0 0 72 43" fill="none" xmlns="http://www.w3.org/2000/svg">
<g clip-path="url(#clip0_50_94)">
<path d="M71.6184 36.9273C71.5313 36.7403 71.4499 36.5851 71.3743 36.4608C70.1251 34.2214 67.738 31.4727 64.2143 28.2139L64.1398 28.1392L64.1027 28.1027L64.0649 28.0651H64.0271C62.4276 26.5477 61.4149 25.5273 60.9908 25.005C60.215 24.0099 60.0412 23.0026 60.4652 21.982C60.7648 21.2109 61.8905 19.5825 63.8392 17.0945C64.8641 15.7759 65.6759 14.7192 66.2756 13.923C70.5996 8.20121 72.4741 4.54492 71.8988 2.9527L71.6756 2.58062C71.5255 2.35661 71.1382 2.15168 70.5139 1.96479C69.8886 1.77829 69.089 1.74745 68.1142 1.87174L57.3181 1.94597C57.1432 1.88429 56.8933 1.89004 56.5682 1.96479C56.2432 2.03955 56.0804 2.07706 56.0804 2.07706L55.8925 2.1705L55.7435 2.28277C55.6186 2.357 55.481 2.48757 55.3309 2.6742C55.1815 2.86017 55.057 3.07843 54.9569 3.32714C53.7815 6.33713 52.4452 9.13567 50.9454 11.7226C50.0206 13.2652 49.1713 14.602 48.3959 15.734C47.6212 16.8655 46.9714 17.6992 46.4468 18.2336C45.9216 18.7685 45.4478 19.1971 45.022 19.5208C44.5972 19.8447 44.2728 19.9815 44.0478 19.9314C43.8228 19.8814 43.6108 19.8317 43.4099 19.7821C43.0603 19.558 42.7792 19.2534 42.5671 18.8679C42.354 18.4823 42.2107 17.9971 42.1358 17.4125C42.061 16.8275 42.017 16.3243 42.0044 15.9013C41.9926 15.4787 41.998 14.8811 42.0235 14.11C42.0494 13.3385 42.061 12.8165 42.061 12.5428C42.061 11.5974 42.0797 10.5713 42.1168 9.46437C42.1546 8.35737 42.1852 7.48032 42.2107 6.83417C42.2363 6.18734 42.2482 5.50307 42.2482 4.78164C42.2482 4.0602 42.2039 3.49442 42.1168 3.08379C42.0307 2.67367 41.8986 2.27558 41.7244 1.88964C41.549 1.5041 41.2924 1.20586 40.9558 0.994135C40.6184 0.782672 40.199 0.614861 39.7001 0.490182C38.3753 0.191808 36.6883 0.0304024 34.6387 0.00530925C29.9905 -0.0443541 27.0038 0.25441 25.6792 0.901212C25.1544 1.17449 24.6795 1.54788 24.2549 2.0202C23.8049 2.56768 23.7421 2.86644 24.067 2.91559C25.5667 3.1392 26.6284 3.67414 27.2533 4.51984L27.4784 4.96801C27.6536 5.29133 27.8285 5.86377 28.0035 6.68453C28.1783 7.50526 28.2911 8.4132 28.3407 9.40776C28.4654 11.224 28.4654 12.7787 28.3407 14.0721C28.2155 15.3659 28.0974 16.3732 27.9846 17.0946C27.8718 17.816 27.7032 18.4006 27.4784 18.8483C27.2533 19.296 27.1034 19.5697 27.0283 19.669C26.9533 19.7684 26.8908 19.831 26.8412 19.8555C26.5164 19.9794 26.1785 20.0426 25.8289 20.0426C25.4787 20.0426 25.0541 19.8682 24.5543 19.5198C24.0548 19.1713 23.5363 18.6927 22.9988 18.0832C22.4614 17.4735 21.8553 16.6215 21.1803 15.5271C20.5058 14.4327 19.806 13.1392 19.0812 11.6467L18.4815 10.5643C18.1067 9.86793 17.5946 8.85402 16.9448 7.52342C16.2946 6.19232 15.7199 4.90472 15.2203 3.66091C15.0206 3.13855 14.7205 2.74085 14.3208 2.46718L14.1331 2.35491C14.0084 2.25559 13.8082 2.15011 13.5335 2.03772C13.2584 1.92545 12.9714 1.84495 12.6712 1.79541L2.39966 1.86965C1.35004 1.86965 0.637862 2.10633 0.262865 2.57905L0.112788 2.80266C0.0378148 2.92722 0 3.12613 0 3.39993C0 3.6736 0.0749729 4.0095 0.22505 4.40718C1.72451 7.91501 3.35514 11.298 5.11693 14.5567C6.87874 17.8154 8.40971 20.4404 9.70891 22.4293C11.0084 24.4196 12.333 26.298 13.6826 28.0637C15.0323 29.83 15.9256 30.962 16.3628 31.4592C16.8004 31.9575 17.1441 32.3299 17.394 32.5786L18.3313 33.474C18.9311 34.0712 19.8119 34.7863 20.974 35.6195C22.1364 36.4533 23.4233 37.2738 24.8354 38.083C26.2476 38.891 27.8906 39.55 29.7652 40.0599C31.6395 40.5701 33.4638 40.7751 35.2383 40.6762H39.5496C40.4237 40.601 41.0861 40.3276 41.5364 39.8553L41.6855 39.6682C41.7859 39.5195 41.8799 39.2891 41.9663 38.9784C42.0541 38.6678 42.0977 38.3252 42.0977 37.9525C42.0721 36.8829 42.1538 35.919 42.341 35.061C42.5279 34.2031 42.7406 33.5563 42.979 33.1208C43.2169 32.6856 43.4855 32.3183 43.7846 32.0206C44.0842 31.7222 44.2976 31.5415 44.4229 31.4792C44.5475 31.4166 44.6468 31.3742 44.7217 31.3487C45.3215 31.1498 46.0274 31.3424 46.8403 31.9275C47.6528 32.5121 48.415 33.2339 49.1274 34.0918C49.8398 34.9504 50.6956 35.914 51.6949 36.9832C52.6954 38.0532 53.5698 38.8484 54.319 39.3715L55.0685 39.8194C55.5692 40.1179 56.219 40.3917 57.019 40.6404C57.8174 40.8891 58.5169 40.9514 59.1174 40.8271L68.7139 40.678C69.6632 40.678 70.4016 40.5214 70.9254 40.2111C71.4506 39.9001 71.7624 39.5575 71.8628 39.1852C71.9633 38.8122 71.9687 38.389 71.8819 37.9156C71.793 37.4437 71.7055 37.1137 71.6184 36.9273Z" fill="white"/>
</g>
<defs>
<clipPath id="clip0_50_94">
<rect width="72" height="43" fill="white"/>
</clipPath>
</defs>
</svg>
