<svg width="61" height="61" viewBox="0 0 61 61" fill="none" xmlns="http://www.w3.org/2000/svg">
<g clip-path="url(#clip0_44_49)">
<path d="M45.1368 35.0514C45.018 34.9944 40.5709 32.8045 39.7807 32.5201C39.4581 32.4042 39.1125 32.2912 38.7449 32.2912C38.1444 32.2912 37.64 32.5904 37.247 33.1782C36.8028 33.8385 35.458 35.4105 35.0425 35.8801C34.9883 35.942 34.9142 36.0161 34.8698 36.0161C34.83 36.0161 34.1418 35.7327 33.9334 35.6422C29.163 33.57 25.542 28.5868 25.0455 27.7465C24.9746 27.6256 24.9716 27.5708 24.971 27.5708C24.9884 27.5068 25.1488 27.346 25.2316 27.263C25.4738 27.0234 25.7363 26.7075 25.9902 26.4019C26.1104 26.2571 26.2308 26.1121 26.349 25.9755C26.7174 25.5469 26.8814 25.2142 27.0715 24.8288L27.1711 24.6285C27.6354 23.7062 27.2389 22.9279 27.1107 22.6765C27.0056 22.4662 25.1278 17.9344 24.9282 17.4583C24.4481 16.3094 23.8138 15.7744 22.9322 15.7744C22.8504 15.7744 22.9322 15.7744 22.5892 15.7889C22.1715 15.8065 19.8969 16.106 18.8912 16.7399C17.8247 17.4123 16.0204 19.5556 16.0204 23.3249C16.0204 26.7174 18.1732 29.9205 19.0976 31.1387C19.1205 31.1694 19.1627 31.2318 19.2239 31.3213C22.7637 36.4909 27.1765 40.322 31.6499 42.109C35.9565 43.8293 37.9959 44.0281 39.1553 44.0281C39.1555 44.0281 39.1555 44.0281 39.1555 44.0281C39.6427 44.0281 40.0326 43.9899 40.3767 43.956L40.5949 43.9352C42.0827 43.8033 45.3521 42.1092 46.0958 40.0425C46.6816 38.4147 46.8361 36.6362 46.4464 35.9908C46.1794 35.5519 45.7193 35.3311 45.1368 35.0514Z" fill="white"/>
<path d="M31.0416 0C14.5209 0 1.08026 13.3396 1.08026 29.7361C1.08026 35.0394 2.4995 40.2305 5.18805 44.7738L0.0420707 59.9535C-0.0537864 60.2365 0.0175123 60.5494 0.226853 60.7625C0.377967 60.9168 0.582951 61 0.792292 61C0.872503 61 0.953308 60.9879 1.03213 60.9628L16.8604 55.933C21.1918 58.2473 26.0873 59.4689 31.0418 59.4689C47.5609 59.4691 61.0001 46.1309 61.0001 29.7361C61.0001 13.3396 47.5609 0 31.0416 0ZM31.0416 53.2748C26.3796 53.2748 21.8642 51.9286 17.9828 49.3817C17.8523 49.2959 17.7008 49.252 17.5483 49.252C17.4677 49.252 17.3869 49.2642 17.3082 49.2892L9.37923 51.8096L11.9389 44.2581C12.0216 44.0137 11.9802 43.7441 11.8277 43.5358C8.87202 39.4971 7.30959 34.7254 7.30959 29.7361C7.30959 16.7552 17.9557 6.19427 31.0414 6.19427C44.1255 6.19427 54.7704 16.7552 54.7704 29.7361C54.7706 42.7155 44.1259 53.2748 31.0416 53.2748Z" fill="white"/>
</g>
<defs>
<clipPath id="clip0_44_49">
<rect width="61" height="61" fill="white"/>
</clipPath>
</defs>
</svg>
