<svg width="69" height="51" viewBox="0 0 69 51" fill="none" xmlns="http://www.w3.org/2000/svg">
<path d="M66.3104 4.18131C63.8199 1.21143 59.2212 0 50.4394 0H18.5601C9.57698 0 4.90056 1.28957 2.41923 4.45143C0 7.53427 0 12.0766 0 18.3632V30.3456C0 42.5249 2.8704 48.7086 18.5601 48.7086H50.4394C58.0551 48.7086 62.2754 47.6398 65.0056 45.0188C67.8056 42.3311 69 37.9429 69 30.3456V18.3632C69 11.7334 68.813 7.16433 66.3104 4.18131ZM44.2984 26.0087L29.822 33.5977C29.4984 33.7674 29.1445 33.8515 28.791 33.8515C28.3908 33.8515 27.9915 33.7435 27.6378 33.5287C26.9719 33.1239 26.5652 32.3999 26.5652 31.6189V16.4896C26.5652 15.71 26.9708 14.9866 27.6354 14.5816C28.3002 14.1766 29.1271 14.1489 29.8169 14.5084L44.2933 22.0484C45.0298 22.432 45.4921 23.1947 45.4932 24.0268C45.4942 24.8596 45.0338 25.6233 44.2984 26.0087Z" fill="white"/>
</svg>
